<?xml version="1.0" encoding="utf-8"?>
<svg viewBox="0 0 103.522 98.147" xmlns="http://www.w3.org/2000/svg">
  <title>A four by two grid of CSS cursors, including OS default, text edit bar, link pointer, move, open drag hand, zoom in, column resize, and cell.</title>
  <path class="cls-1" d="M -65.734 181.337 C -52.427 163.482 -64.376 138.584 -87.244 136.521 C -110.111 134.457 -126.745 156.775 -117.186 176.693 C -109.393 192.93 -88.028 198.389 -72.767 188.044 L -47.391 212.226 L -40.378 205.538 L -65.734 181.337 Z M -65.166 164.946 C -65.166 183.144 -85.822 194.518 -102.348 185.419 C -118.873 176.32 -118.873 153.573 -102.348 144.474 C -98.579 142.399 -94.305 141.306 -89.954 141.306 C -76.27 141.32 -65.18 151.896 -65.166 164.946 Z M 84.461 34.271 C 82.024 33.674 79.434 34.271 77.553 35.866 C 77.317 34.747 76.902 33.669 76.324 32.67 C 75.709 31.756 73.68 29.953 71.763 29.587 C 69.959 29.292 68.115 29.304 66.316 29.625 C 64.583 30.031 63.041 30.976 61.934 32.311 C 61.814 32.058 61.679 31.812 61.53 31.573 C 60.352 29.927 58.552 28.78 56.507 28.371 C 54.695 28.052 52.829 28.153 51.067 28.667 C 49.973 28.995 48.997 29.609 48.251 30.438 C 48.085 29.55 47.933 28.686 47.795 27.873 C 47.074 23.561 46.268 20.655 44.932 17.786 C 44.093 15.965 42.533 12.573 39.611 11.161 C 36.888 9.843 32.829 10.53 30.939 12.623 C 29.253 14.515 28.671 17.894 29.194 22.71 C 29.535 25.11 30.008 27.492 30.608 29.846 L 31.15 32.008 C 31.468 33.307 31.758 34.479 32.181 35.954 L 32.439 36.818 C 32.842 38.173 33.034 38.81 33.556 41.023 C 33.854 42.284 34.118 43.633 34.356 44.925 C 33.6 44.032 32.764 43.203 31.858 42.447 C 29.511 40.613 27.151 38.942 24.15 38.665 C 19.816 38.212 15.854 41.035 15.081 45.127 C 14.6 47.06 14.929 49.096 16 50.8 C 16.846 52.313 18.703 54.494 20.501 56.606 C 21.625 57.924 22.703 59.185 23.377 60.118 C 24.957 62.305 26.166 64.284 27.164 65.911 C 27.893 67.182 28.71 68.406 29.61 69.573 C 29.629 69.607 29.654 69.636 29.683 69.662 L 33.96 74.156 C 34.654 74.743 35.559 75.569 36.485 76.401 C 37.635 77.447 38.805 78.506 39.651 79.193 C 40.365 79.761 40.477 82.144 40.147 83.928 C 39.948 85.005 40.804 85.998 41.951 86.021 L 45.706 86.071 C 47.755 86.109 49.844 86.147 51.767 86.147 C 53.764 86.175 55.761 86.097 57.749 85.913 C 60.393 85.598 62.998 81.948 64.452 79.83 C 64.763 80.397 67.579 85.365 70.758 85.85 C 73.085 86.197 76.958 85.743 77.368 85.693 C 78.484 85.554 79.215 84.509 78.922 83.474 C 78.572 82.24 78.392 80.969 78.386 79.691 C 78.386 79.156 78.432 78.765 78.439 78.431 C 78.452 77.408 78.592 76.39 78.856 75.398 C 79.186 73.879 82.266 69.939 84.461 67.487 C 85.946 65.291 87.12 62.917 87.951 60.426 C 88.698 57.905 89.134 52.862 89.214 51.847 C 89.359 50.037 89.419 48.537 89.419 46.034 L 89.419 45.171 C 89.419 43.91 89.419 43.563 89.319 40.922 C 89.141 36.005 85.875 34.631 84.461 34.271 Z M 87.588 46.022 C 87.588 48.468 87.528 49.937 87.389 51.695 C 87.237 53.587 86.808 57.854 86.193 59.891 C 85.416 62.194 84.33 64.391 82.96 66.428 C 82.96 66.428 77.672 72.328 77.064 74.989 C 76.704 76.483 76.535 78.013 76.562 79.546 C 76.558 81.015 76.758 82.478 77.157 83.896 C 77.157 83.896 73.191 84.388 71.049 84.066 C 69.112 83.764 66.719 80.095 66.098 78.966 C 65.512 77.707 63.716 77.524 62.865 78.638 C 62.811 78.708 62.763 78.782 62.72 78.859 C 61.603 80.668 59.21 83.902 57.518 84.117 C 54.213 84.514 47.345 84.262 41.971 84.211 C 41.971 84.211 42.89 79.439 40.847 77.8 C 39.34 76.577 36.736 74.093 35.182 72.788 L 31.064 68.495 C 29.656 66.8 27.951 63.333 24.91 59.121 C 23.185 56.745 18.908 52.263 17.639 49.987 C 16.535 47.976 16.654 47.068 16.912 45.404 C 17.381 42.441 20.567 40.128 23.972 40.443 C 26.543 40.67 28.718 42.29 30.681 43.822 C 31.958 44.967 33.134 46.211 34.198 47.541 C 35.004 48.468 35.202 48.852 36.062 49.949 C 37.205 51.399 37.562 52.118 37.126 50.517 C 36.776 48.178 36.2 44.175 35.368 40.638 C 34.707 37.959 34.581 37.537 33.973 35.475 C 33.312 33.288 33.008 31.75 32.413 29.43 C 31.829 27.158 31.372 24.858 31.045 22.54 C 30.76 19.955 30.615 15.744 32.367 13.809 C 33.728 12.289 36.848 11.829 38.785 12.768 C 41.323 13.991 42.751 17.503 43.412 18.908 C 44.595 21.43 45.329 24.342 45.97 28.169 C 46.783 33.036 48.277 39.794 48.33 41.218 C 48.442 39.472 47.993 35.803 48.33 34.133 C 48.676 32.413 49.924 30.985 51.635 30.35 C 53.092 29.933 54.632 29.849 56.13 30.104 C 57.656 30.413 59.007 31.254 59.918 32.462 C 61.715 35.406 61.749 41.433 61.821 41.111 C 62.251 39.333 62.172 35.305 63.229 33.628 C 64.057 32.523 65.259 31.723 66.633 31.365 C 68.21 31.088 69.825 31.075 71.406 31.327 C 72.635 31.561 74.308 32.96 74.757 33.628 C 75.835 35.255 76.449 39.85 76.635 41.458 C 76.707 42.126 76.998 39.604 78.082 37.984 C 80.065 34.965 87.211 34.378 87.482 40.998 C 87.614 44.087 87.588 43.948 87.588 46.022 Z" style="fill: rgb(232, 232, 232);"/>
  <path class="cls-1" d="M 78.089 37.984 C 77.005 39.604 76.714 42.126 76.641 41.458 C 76.456 39.85 75.841 35.255 74.764 33.628 C 74.314 32.96 72.642 31.561 71.413 31.327 C 69.832 31.075 68.216 31.088 66.64 31.365 C 65.266 31.723 64.064 32.523 63.236 33.628 C 62.178 35.305 62.258 39.302 61.828 41.111 C 61.755 41.433 61.722 35.437 59.924 32.462 C 59.012 31.253 57.659 30.412 56.13 30.104 C 54.616 29.846 53.06 29.934 51.589 30.363 C 49.878 30.997 48.63 32.426 48.284 34.145 C 47.973 35.816 48.423 39.485 48.284 41.231 C 48.231 39.806 46.737 33.036 45.924 28.182 C 45.263 24.355 44.549 21.443 43.366 18.921 C 42.705 17.515 41.27 14.004 38.739 12.781 C 36.802 11.842 33.682 12.302 32.32 13.821 C 30.582 15.756 30.727 19.968 30.998 22.552 C 31.342 24.861 31.814 27.15 32.413 29.411 C 33.008 31.731 33.338 33.269 33.973 35.456 C 34.581 37.518 34.733 37.94 35.368 40.619 C 36.2 44.156 36.776 48.184 37.126 50.498 C 37.562 52.099 37.205 51.38 36.062 49.93 C 35.202 48.833 35.004 48.449 34.198 47.522 C 33.134 46.193 31.958 44.949 30.681 43.803 C 28.698 42.271 26.543 40.651 23.972 40.424 C 20.567 40.109 17.362 42.422 16.912 45.385 C 16.654 47.049 16.535 47.957 17.639 49.968 C 18.908 52.244 23.185 56.726 24.91 59.103 C 27.951 63.314 29.656 66.781 31.064 68.477 L 35.182 72.82 C 36.736 74.125 39.34 76.602 40.847 77.832 C 42.89 79.471 41.971 84.243 41.971 84.243 C 47.345 84.293 54.206 84.545 57.518 84.148 C 59.21 83.947 61.603 80.7 62.72 78.891 C 63.393 77.671 65.198 77.603 65.969 78.768 C 66.018 78.841 66.061 78.918 66.098 78.998 C 66.719 80.126 69.112 83.795 71.049 84.098 C 73.191 84.419 77.157 83.928 77.157 83.928 C 76.758 82.509 76.558 81.046 76.562 79.578 C 76.535 78.045 76.704 76.514 77.064 75.02 C 77.646 72.36 82.96 66.459 82.96 66.459 C 84.33 64.423 85.416 62.225 86.193 59.922 C 86.808 57.854 87.237 53.618 87.389 51.727 C 87.528 49.962 87.588 48.493 87.588 46.053 C 87.588 43.979 87.588 44.118 87.488 41.01 C 87.198 34.378 80.098 34.965 78.089 37.984 Z M 85.73 45.171 L 85.73 46.016 C 85.73 48.405 85.677 49.836 85.538 51.563 C 85.37 54.209 84.992 56.839 84.408 59.43 C 83.707 61.491 82.748 63.464 81.552 65.306 C 80.614 66.346 75.894 71.698 75.246 74.654 C 74.932 75.857 74.766 77.09 74.751 78.33 L 74.704 79.477 C 74.667 80.442 74.738 81.408 74.916 82.358 C 73.731 82.472 72.538 82.472 71.353 82.358 C 70.626 82.2 68.768 80.057 67.744 78.185 C 67.145 76.991 65.898 76.216 64.512 76.174 C 63.131 76.197 61.856 76.882 61.121 77.996 C 59.66 80.372 57.908 82.226 57.287 82.408 C 54.848 82.698 50.24 82.623 45.772 82.541 L 44.033 82.541 C 44.119 80.65 43.855 77.97 42.05 76.514 C 41.251 75.884 40.133 74.863 39.043 73.866 C 38.084 72.997 37.132 72.139 36.564 71.673 L 32.479 67.367 C 31.714 66.336 31.01 65.265 30.37 64.158 C 29.339 62.463 28.077 60.408 26.437 58.138 C 25.717 57.148 24.58 55.806 23.383 54.4 C 21.887 52.757 20.517 51.012 19.285 49.18 C 18.439 47.648 18.512 47.194 18.75 45.688 C 19.08 43.626 21.46 42.019 23.8 42.221 C 25.783 42.403 27.541 43.683 29.504 45.209 C 30.53 46.101 31.476 47.073 32.333 48.115 L 32.803 48.663 C 33.246 49.174 33.464 49.502 33.781 49.924 L 35.169 51.746 C 35.718 52.471 36.637 53.7 38.104 53.007 C 39.572 52.313 39.175 50.857 38.997 50.252 L 38.924 49.785 C 38.56 47.333 38.005 43.614 37.212 40.235 C 36.663 37.921 36.465 37.253 36.048 35.822 L 35.797 34.965 C 35.387 33.559 35.103 32.443 34.792 31.182 L 34.25 28.995 C 33.689 26.799 33.248 24.577 32.928 22.338 C 32.538 18.751 32.862 15.983 33.801 14.937 C 34.581 14.067 36.762 13.739 37.972 14.307 C 39.71 15.139 40.966 17.875 41.753 19.583 C 42.777 21.77 43.498 24.412 44.166 28.409 C 44.529 30.558 45.018 33.073 45.488 35.343 C 45.964 37.795 46.506 40.575 46.525 41.243 C 46.564 42.187 47.366 42.939 48.356 42.958 C 49.156 43.09 50.174 42.239 50.24 41.3 C 50.293 40.525 50.24 39.409 50.187 38.199 C 50.08 36.94 50.08 35.675 50.187 34.416 C 50.419 33.372 51.154 32.493 52.17 32.046 C 53.347 31.7 54.592 31.623 55.806 31.819 C 56.817 32.029 57.722 32.563 58.371 33.332 C 59.177 34.662 59.693 37.152 59.97 40.733 C 60.003 41.231 60.109 42.756 61.735 42.87 C 62.663 42.931 63.501 42.345 63.718 41.483 C 63.895 40.589 64.018 39.686 64.089 38.779 C 64.227 37.379 64.439 35.267 64.908 34.523 C 65.456 33.856 66.199 33.358 67.043 33.092 C 68.389 32.849 69.77 32.834 71.122 33.048 C 71.96 33.374 72.701 33.894 73.277 34.561 C 73.845 35.419 74.486 38.262 74.87 41.628 C 74.963 42.512 75.689 43.215 76.615 43.317 C 78.234 43.431 78.598 42 78.737 41.426 C 78.948 40.547 79.284 39.698 79.735 38.905 C 80.641 37.802 82.142 37.308 83.569 37.644 C 85.248 38.073 85.657 39.718 85.717 41.023 C 85.737 43.62 85.737 43.91 85.73 45.171 Z" style="fill: rgb(232, 232, 232);"/>
  <path class="cls-1" d="M 71.842 52.048 C 70.816 52.048 69.985 52.842 69.985 53.82 L 69.985 70.153 C 69.985 71.517 71.533 72.369 72.771 71.688 C 73.346 71.371 73.7 70.786 73.7 70.153 L 73.7 53.82 C 73.7 52.842 72.868 52.048 71.842 52.048 Z M 61.782 52.036 C 60.753 52.039 59.923 52.839 59.931 53.82 L 60.01 70.21 C 60.01 71.574 61.558 72.426 62.796 71.744 C 63.371 71.428 63.725 70.843 63.725 70.21 L 63.646 53.82 C 63.653 52.834 62.815 52.032 61.782 52.036 Z M 51.972 52.187 C 50.945 52.187 50.114 52.985 50.121 53.965 L 50.227 70.147 C 50.234 71.122 51.063 71.909 52.085 71.912 C 53.11 71.905 53.936 71.107 53.929 70.128 L 53.823 53.946 C 53.819 52.974 52.992 52.187 51.972 52.187 Z" style="fill: rgb(232, 232, 232);"/>
</svg>